<?xml version="1.0" standalone="no"?>
<!DOCTYPE svg PUBLIC "-//W3C//DTD SVG 20010904//EN"
 "http://www.w3.org/TR/2001/REC-SVG-20010904/DTD/svg10.dtd">
<svg version="1.0" xmlns="http://www.w3.org/2000/svg"
 width="1052.000000pt" height="725.000000pt" viewBox="0 0 1052.000000 725.000000"
 preserveAspectRatio="xMidYMid meet">

<g transform="translate(0.000000,725.000000) scale(0.100000,-0.100000)"
fill="#000000" stroke="none">
<path d="M2320 7046 c-99 -25 -194 -94 -259 -189 -17 -25 -31 -48 -31 -51 0
-3 -11 -29 -24 -58 -14 -29 -34 -82 -45 -116 -82 -254 -96 -478 -96 -1477 1
-1048 35 -1937 96 -2465 5 -47 14 -134 19 -195 20 -231 30 -335 45 -480 9 -82
21 -190 26 -240 32 -312 47 -405 87 -567 21 -84 85 -177 147 -215 81 -50 116
-63 178 -63 101 0 163 42 192 131 19 56 15 85 -23 174 -14 33 -29 80 -33 105
-4 25 -14 90 -23 145 -29 176 -47 328 -91 780 -39 397 -93 1131 -115 1575 -5
102 -14 277 -20 390 -39 777 -26 1708 31 2120 13 92 36 160 55 160 15 0 77
-33 111 -59 86 -68 338 -307 683 -648 151 -149 289 -284 306 -300 17 -15 58
-52 90 -82 32 -30 113 -106 179 -170 133 -129 373 -344 422 -379 42 -30 115
-30 185 1 75 32 120 44 223 56 122 14 543 29 1175 42 1539 29 1678 26 1803
-37 92 -47 118 -45 194 15 144 113 382 332 659 606 292 290 527 508 755 700
46 39 154 112 191 128 64 30 86 21 122 -50 36 -71 42 -435 52 -3263 6 -1649
10 -1850 45 -1998 7 -29 23 -64 35 -78 22 -22 30 -24 125 -24 100 0 101 0 130
31 16 17 33 47 39 67 37 126 64 613 77 1392 12 736 10 3321 -4 3545 -23 389
-105 650 -242 767 -96 82 -308 104 -456 48 -223 -84 -463 -279 -1000 -810
-432 -428 -513 -505 -601 -572 l-79 -60 -170 6 c-440 15 -1255 18 -1900 7
-850 -14 -1098 -26 -1219 -57 -27 -7 -55 20 -660 628 -586 590 -735 734 -891
863 -86 72 -182 145 -190 145 -4 0 -19 8 -33 18 -36 25 -172 72 -203 71 -13
-1 -44 -7 -69 -13z"/>
<path d="M7800 3659 c-86 -14 -161 -30 -205 -44 -22 -7 -60 -18 -85 -25 -55
-15 -247 -78 -275 -90 -11 -4 -51 -21 -90 -36 -179 -73 -340 -176 -372 -238
-22 -43 -21 -142 3 -191 29 -60 72 -80 167 -79 44 1 84 7 90 13 6 6 16 11 23
11 7 0 50 18 96 39 107 50 212 94 263 109 22 6 72 21 110 32 39 12 93 25 120
30 28 5 90 16 138 25 87 15 212 28 457 46 239 17 297 38 339 122 21 43 23 52
12 88 -26 87 -126 163 -244 185 -82 16 -456 18 -547 3z"/>
<path d="M3555 3563 c-212 -44 -246 -53 -296 -80 -46 -24 -113 -109 -125 -159
-7 -29 40 -117 74 -140 40 -27 176 -36 627 -44 237 -4 455 -12 485 -18 68 -12
87 -20 225 -86 153 -75 158 -76 233 -76 60 0 72 3 99 28 77 67 95 164 44 243
-15 24 -37 53 -47 64 -23 24 -90 75 -99 75 -4 0 -20 9 -35 20 -55 39 -216 117
-285 137 -38 12 -114 26 -167 32 -90 10 -689 14 -733 4z"/>
<path d="M383 3400 c-48 -29 -63 -67 -63 -159 l0 -79 50 -55 c62 -68 181 -158
425 -319 334 -221 572 -358 625 -358 39 0 99 39 132 87 42 62 46 140 10 190
-69 97 -681 516 -988 676 -83 43 -140 48 -191 17z"/>
<path d="M5670 2916 c-62 -17 -86 -31 -143 -85 -75 -69 -127 -154 -127 -207 0
-86 42 -236 87 -306 12 -21 23 -40 23 -43 0 -3 12 -23 26 -44 52 -80 23 -233
-86 -453 -124 -248 -313 -430 -525 -503 -67 -23 -172 -45 -215 -45 -106 0
-253 85 -307 177 -24 41 -25 53 -33 270 -9 257 -17 295 -69 330 -58 39 -159
25 -220 -30 -40 -37 -91 -125 -117 -205 -23 -67 -26 -94 -27 -212 0 -149 8
-189 64 -306 66 -139 201 -291 319 -360 129 -76 186 -89 395 -89 145 0 191 3
235 18 30 10 71 22 90 28 67 21 186 83 285 147 99 65 298 252 421 395 33 38
55 56 64 52 8 -3 47 -50 85 -103 39 -53 120 -147 180 -208 125 -126 194 -167
338 -203 140 -35 376 -27 512 17 64 20 171 75 229 117 85 61 145 120 243 237
56 68 233 373 233 403 0 3 9 24 20 48 70 152 120 317 120 394 0 72 -15 108
-60 147 -60 50 -182 60 -238 19 -24 -17 -101 -152 -118 -207 -18 -59 -107
-244 -151 -314 -18 -29 -33 -55 -33 -59 0 -16 -117 -158 -177 -214 -88 -81
-155 -123 -249 -154 -128 -42 -200 -29 -318 57 -51 37 -71 62 -126 154 -72
121 -170 312 -215 417 -48 114 -43 139 62 297 60 92 116 200 133 260 7 25 16
58 21 74 14 46 10 128 -9 165 -9 19 -31 42 -48 52 -49 27 -189 59 -324 74
-150 17 -191 17 -250 1z"/>
<path d="M650 2104 c-317 -25 -500 -66 -515 -115 -4 -10 -11 -19 -16 -19 -5 0
-9 -31 -9 -68 0 -113 68 -223 146 -238 41 -7 316 2 474 16 465 43 638 68 674
99 31 27 46 76 46 154 0 60 -4 80 -22 107 -40 58 -67 62 -418 65 -173 2 -335
1 -360 -1z"/>
<path d="M1500 1502 c-46 -28 -383 -277 -410 -303 -8 -8 -37 -32 -65 -54 -136
-108 -528 -436 -583 -490 -69 -65 -102 -118 -102 -162 1 -37 31 -102 61 -130
30 -27 100 -53 145 -53 55 0 179 78 402 253 64 51 134 106 155 122 222 173
580 483 615 533 47 66 55 93 42 136 -17 58 -54 111 -102 146 -53 38 -98 39
-158 2z"/>
</g>
</svg>
